<svg width="285" height="140" viewBox="0 0 285 140" fill="none" xmlns="http://www.w3.org/2000/svg">
<rect x="1" y="9" width="263" height="74" rx="16" fill="white"/>
<rect x="1" y="9" width="263" height="74" rx="16" stroke="white" stroke-width="2"/>
<rect x="1" y="9" width="263" height="74" rx="16" stroke="white" stroke-width="2"/>
<rect x="1" y="1" width="263" height="74" rx="16" fill="#8938FF"/>
<rect x="1" y="1" width="263" height="74" rx="16" stroke="white" stroke-width="2"/>
<rect x="1" y="1" width="263" height="74" rx="16" stroke="white" stroke-width="2"/>
<rect x="71" y="33" width="100" height="8" rx="4" fill="white"/>
<rect x="71" y="33" width="100" height="8" rx="4" stroke="white" stroke-width="2"/>
<rect x="71" y="33" width="100" height="8" rx="4" stroke="white" stroke-width="2"/>
<circle cx="36.5" cy="37.5" r="16.5" fill="white"/>
<g clip-path="url(#clip0_29_695)">
<path d="M31 37.851L34.7669 41.625L42 34.3991L40.9616 33.375L34.7669 39.5625L32.0241 36.8197L31 37.851Z" fill="#8938FF"/>
</g>
<path d="M220.063 61.9223L266.694 86.1376C270.788 88.2633 270.065 94.326 265.586 95.4297L247.933 99.7801C245.452 100.392 243.347 102.029 242.145 104.285L233.614 120.286C231.43 124.383 225.326 123.55 224.32 119.017L212.878 67.4427C211.958 63.2983 216.296 59.9659 220.063 61.9223Z" fill="white" stroke="#8938FF" stroke-width="4"/>
<defs>
<clipPath id="clip0_29_695">
<rect width="11" height="11" fill="white" transform="translate(31 32)"/>
</clipPath>
</defs>
</svg>
