<svg width="221" height="277" viewBox="0 0 221 277" fill="none" xmlns="http://www.w3.org/2000/svg">
<rect width="220.533" height="276.267" fill="#8938FF"/>
<rect x="72.2326" y="48.5333" width="76.0657" height="144.533" stroke="white" stroke-width="1.06667"/>
<rect x="72.2326" y="48.5333" width="76.0657" height="144.533" stroke="white" stroke-width="1.06667"/>
<rect x="95.047" y="54.9332" width="29.8949" height="4.8" fill="white"/>
<rect x="95.047" y="54.9332" width="29.8949" height="4.8" stroke="white" stroke-width="1.06667"/>
<rect x="95.047" y="54.9332" width="29.8949" height="4.8" stroke="white" stroke-width="1.06667"/>
<rect x="97.4952" y="190.133" width="22.2805" height="0.533333" fill="white"/>
<rect x="97.4952" y="190.133" width="22.2805" height="0.533333" stroke="white" stroke-width="0.533333"/>
<rect x="97.4952" y="190.133" width="22.2805" height="0.533333" stroke="white" stroke-width="0.533333"/>
<ellipse cx="109.995" cy="120" rx="20.9126" ry="20.2667" fill="white"/>
<ellipse cx="154.536" cy="120.8" rx="11.6785" ry="11.4667" fill="white"/>
<ellipse cx="65.9968" cy="120.8" rx="11.6785" ry="11.4667" fill="white"/>
<path d="M112.449 116.8C112.449 117.969 111.481 118.933 110.267 118.933C109.052 118.933 108.084 117.969 108.084 116.8C108.084 115.631 109.052 114.667 110.267 114.667C111.481 114.667 112.449 115.631 112.449 116.8Z" stroke="#8938FF" stroke-width="1.06667"/>
<path d="M67.9076 117.6C67.9076 118.327 67.3045 118.933 66.5398 118.933C65.7752 118.933 65.172 118.327 65.172 117.6C65.172 116.873 65.7752 116.267 66.5398 116.267C67.3045 116.267 67.9076 116.873 67.9076 117.6Z" stroke="#8938FF" stroke-width="1.06667"/>
<path d="M155.904 117.6C155.904 118.327 155.301 118.933 154.536 118.933C153.771 118.933 153.168 118.327 153.168 117.6C153.168 116.873 153.771 116.267 154.536 116.267C155.301 116.267 155.904 116.873 155.904 117.6Z" stroke="#8938FF" stroke-width="1.06667"/>
<mask id="path-11-inside-1_29_2359" fill="white">
<path d="M117.871 128C117.871 127.019 117.675 126.048 117.292 125.142C116.91 124.237 116.35 123.413 115.644 122.72C114.938 122.027 114.099 121.477 113.177 121.102C112.254 120.726 111.265 120.533 110.267 120.533C109.268 120.533 108.279 120.726 107.357 121.102C106.434 121.477 105.596 122.027 104.889 122.72C104.183 123.413 103.623 124.237 103.241 125.143C102.859 126.048 102.662 127.019 102.662 128L110.267 128H117.871Z"/>
</mask>
<path d="M117.871 128C117.871 127.019 117.675 126.048 117.292 125.142C116.91 124.237 116.35 123.413 115.644 122.72C114.938 122.027 114.099 121.477 113.177 121.102C112.254 120.726 111.265 120.533 110.267 120.533C109.268 120.533 108.279 120.726 107.357 121.102C106.434 121.477 105.596 122.027 104.889 122.72C104.183 123.413 103.623 124.237 103.241 125.143C102.859 126.048 102.662 127.019 102.662 128L110.267 128H117.871Z" stroke="#8938FF" stroke-width="2.13333" mask="url(#path-11-inside-1_29_2359)"/>
<mask id="path-12-inside-2_29_2359" fill="white">
<path d="M71.7014 125.067C71.7014 124.401 71.5679 123.742 71.3086 123.128C71.0493 122.513 70.6692 121.954 70.19 121.484C69.7108 121.014 69.1419 120.64 68.5159 120.386C67.8898 120.131 67.2188 120 66.5411 120C65.8635 120 65.1924 120.131 64.5664 120.386C63.9403 120.64 63.3714 121.014 62.8923 121.484C62.4131 121.954 62.033 122.513 61.7737 123.128C61.5143 123.742 61.3809 124.401 61.3809 125.067L66.5411 125.067H71.7014Z"/>
</mask>
<path d="M71.7014 125.067C71.7014 124.401 71.5679 123.742 71.3086 123.128C71.0493 122.513 70.6692 121.954 70.19 121.484C69.7108 121.014 69.1419 120.64 68.5159 120.386C67.8898 120.131 67.2188 120 66.5411 120C65.8635 120 65.1924 120.131 64.5664 120.386C63.9403 120.64 63.3714 121.014 62.8923 121.484C62.4131 121.954 62.033 122.513 61.7737 123.128C61.5143 123.742 61.3809 124.401 61.3809 125.067L66.5411 125.067H71.7014Z" stroke="#8938FF" stroke-width="2.13333" mask="url(#path-12-inside-2_29_2359)"/>
<mask id="path-13-inside-3_29_2359" fill="white">
<path d="M159.697 125.067C159.697 124.401 159.564 123.742 159.305 123.128C159.045 122.513 158.665 121.954 158.186 121.484C157.707 121.014 157.138 120.64 156.512 120.386C155.886 120.131 155.215 120 154.537 120C153.86 120 153.189 120.131 152.562 120.386C151.936 120.64 151.368 121.014 150.888 121.484C150.409 121.954 150.029 122.513 149.77 123.128C149.51 123.742 149.377 124.401 149.377 125.067L154.537 125.067H159.697Z"/>
</mask>
<path d="M159.697 125.067C159.697 124.401 159.564 123.742 159.305 123.128C159.045 122.513 158.665 121.954 158.186 121.484C157.707 121.014 157.138 120.64 156.512 120.386C155.886 120.131 155.215 120 154.537 120C153.86 120 153.189 120.131 152.562 120.386C151.936 120.64 151.368 121.014 150.888 121.484C150.409 121.954 150.029 122.513 149.77 123.128C149.51 123.742 149.377 124.401 149.377 125.067L154.537 125.067H159.697Z" stroke="#8938FF" stroke-width="2.13333" mask="url(#path-13-inside-3_29_2359)"/>
</svg>
