<svg width="266" height="124" viewBox="0 0 266 124" fill="none" xmlns="http://www.w3.org/2000/svg">
<rect x="77.459" y="91" width="78" height="7" rx="3.5" fill="white"/>
<rect x="77.459" y="91" width="78" height="7" rx="3.5" stroke="white" stroke-width="2"/>
<rect x="77.459" y="91" width="78" height="7" rx="3.5" stroke="white" stroke-width="2"/>
<rect x="76.959" y="42.5" width="86" height="1" rx="0.5" fill="white"/>
<rect x="76.959" y="42.5" width="86" height="1" rx="0.5" stroke="white"/>
<rect x="76.959" y="42.5" width="86" height="1" rx="0.5" stroke="white"/>
<rect x="76.959" y="31.5" width="154" height="1" rx="0.5" fill="white"/>
<rect x="76.959" y="31.5" width="154" height="1" rx="0.5" stroke="white"/>
<rect x="76.959" y="31.5" width="154" height="1" rx="0.5" stroke="white"/>
<rect x="76.959" y="20.5" width="154" height="1" rx="0.5" fill="white"/>
<rect x="76.959" y="20.5" width="154" height="1" rx="0.5" stroke="white"/>
<rect x="76.959" y="20.5" width="154" height="1" rx="0.5" stroke="white"/>
<rect x="1.45898" y="1" width="263" height="122" rx="16" stroke="white" stroke-width="2"/>
<rect x="1.45898" y="1" width="263" height="122" rx="16" stroke="white" stroke-width="2"/>
<circle cx="33.959" cy="31.5" r="18.5" fill="white"/>
<g clip-path="url(#clip0_29_1545)">
<path d="M28.459 32.3829L32.2259 36.5L39.459 28.6172L38.4206 27.5L32.2259 34.25L29.483 31.2578L28.459 32.3829Z" fill="#8938FF"/>
</g>
<defs>
<clipPath id="clip0_29_1545">
<rect width="11" height="12" fill="white" transform="translate(28.459 26)"/>
</clipPath>
</defs>
</svg>
