<svg width="129" height="41" viewBox="0 0 129 41" fill="none" xmlns="http://www.w3.org/2000/svg">
  <g clip-path="url(#clip0_29_734)">
    <path d="M66.8467 40.7854V37.0032L69.2689 34.5854V40.7854H66.8467Z" fill="white"/>
    <path d="M72.9854 30.8759V40.7855H85.0699V38.5884H75.5079V28.3574L72.9854 30.8759Z" fill="white"/>
    <path d="M79.04 24.8659V27.6471C80.2001 26.0626 88.0989 15.6836 88.0989 15.6836L79.04 24.8659Z" fill="white"/>
    <path d="M79.04 23.0997L84.0959 18.6118L80.1092 21.2835C79.8295 21.4646 79.458 21.7385 79.04 22.0546V23.0997Z" fill="white"/>
    <path d="M91.2442 16.6614C91.3345 16.5266 91.4772 16.3454 91.5675 16.2104L91.6627 16.0757V15.8945C91.5966 15.1285 91.3627 14.3854 90.9765 13.7158L90.7435 13.265L90.3122 13.5346C90.0131 13.7464 89.7043 13.9433 89.385 14.1246L88.8714 13.6737L89.4277 12.7214L89.7091 12.3L89.2512 12.085C88.532 11.7728 87.7628 11.5886 86.9776 11.5414H86.7921L86.6623 11.6341C86.5188 11.7544 86.3624 11.8603 86.1963 11.9502C86.7816 11.0599 87.4508 10.2247 88.1942 9.45553C88.8142 8.82133 89.4801 8.23135 90.1872 7.68985H90.2824C90.3299 7.73619 90.3299 7.77834 90.2824 7.77834C89.9986 8.19002 89.689 8.58412 89.3552 8.95829L88.7981 9.59451L89.6607 9.68297C90.0921 9.72938 90.5234 9.77579 90.9548 9.86424L91.2354 9.91057L91.4208 9.68297C92.2536 8.59583 93.276 7.59712 94.1564 6.50992C96.3695 3.91147 99.1052 1.78327 102.193 0.256348C100.597 3.23466 98.5835 5.98062 96.2091 8.41464C95.2344 9.41332 94.2128 10.3615 93.147 11.2717L92.914 11.4529L92.9607 11.7226C93.0518 12.1777 93.147 12.5655 93.1937 12.9868L93.3324 13.8507L93.979 13.2608C94.3499 12.9405 94.7216 12.6244 95.14 12.3083H95.2343C95.2771 12.3548 95.2771 12.3968 95.2343 12.3968C94.728 13.1159 94.1701 13.799 93.5654 14.4407C92.9365 15.3126 92.1496 16.0653 91.2442 16.6614Z" fill="white"/>
    <path fill-rule="evenodd" clip-rule="evenodd" d="M75.5083 26.1956L72.9857 28.4176V22.0463H75.5083V26.1956ZM69.2695 31.6906L66.8474 33.8241V22.0463H69.2695V31.6906ZM46.9429 24.8244C46.4718 24.8244 46.0767 24.6728 45.7571 24.3698C45.4544 24.0667 45.3031 23.6963 45.3031 23.2586C45.3031 22.8039 45.4544 22.4252 45.7571 22.1221C46.0767 21.8191 46.4718 21.6675 46.9429 21.6675C47.4139 21.6675 47.8006 21.8191 48.1036 22.1221C48.4229 22.4083 48.5827 22.7703 48.5827 23.208C48.5827 23.6627 48.4313 24.0499 48.1287 24.3698C47.8261 24.6728 47.4307 24.8244 46.9429 24.8244ZM6.82093 40.9877C5.4754 40.9877 4.18871 40.7856 2.96091 40.3814C1.73309 39.9608 0.765983 39.4219 0.0595703 38.7654L0.993044 36.7954C1.66582 37.3846 2.52361 37.8729 3.56642 38.2601C4.6092 38.6475 5.69405 38.8412 6.82093 38.8412C7.84692 38.8412 8.67949 38.7232 9.3186 38.4876C9.95772 38.2517 10.4287 37.9319 10.7315 37.5278C11.0342 37.1068 11.1856 36.6353 11.1856 36.1134C11.1856 35.5072 10.9837 35.019 10.5801 34.6486C10.1932 34.2783 9.6802 33.9837 9.04109 33.7648C8.41875 33.5289 7.72917 33.3269 6.97232 33.1586C6.21544 32.9903 5.45016 32.7966 4.67646 32.5778C3.91961 32.3419 3.22162 32.0473 2.58247 31.6938C1.96016 31.3402 1.45557 30.8688 1.06873 30.2795C0.681885 29.6734 0.488462 28.8989 0.488462 27.956C0.488462 27.0468 0.723934 26.2134 1.19487 25.4558C1.68264 24.6812 2.42269 24.0667 3.41503 23.6122C4.42417 23.1407 5.70245 22.905 7.24983 22.905C8.2758 22.905 9.29336 23.0397 10.3025 23.3091C11.3117 23.5785 12.1864 23.9657 12.9263 24.4708L12.0938 26.4912C11.337 25.9861 10.5381 25.6241 9.69705 25.4053C8.85605 25.1695 8.04036 25.0517 7.24983 25.0517C6.25749 25.0517 5.44175 25.178 4.80262 25.4305C4.16348 25.6831 3.69253 26.0198 3.38978 26.4407C3.10388 26.8616 2.96091 27.3331 2.96091 27.855C2.96091 28.4779 3.15433 28.9747 3.54117 29.3451C3.94482 29.7154 4.45782 30.0101 5.08015 30.229C5.71929 30.4479 6.41728 30.6499 7.17414 30.8351C7.93102 31.0035 8.68787 31.1971 9.44478 31.416C10.2185 31.6348 10.9164 31.921 11.5388 32.2745C12.1779 32.6281 12.6909 33.0996 13.0777 33.6888C13.4646 34.2783 13.658 35.036 13.658 35.962C13.658 36.8541 13.4141 37.6876 12.9263 38.4621C12.4386 39.2198 11.6817 39.8344 10.6558 40.3057C9.64658 40.7604 8.36835 40.9877 6.82093 40.9877ZM22.213 40.9371C20.8675 40.9371 19.6733 40.6425 18.6305 40.0533C17.5877 39.4638 16.7635 38.6558 16.158 37.6287C15.5525 36.585 15.2498 35.4064 15.2498 34.093C15.2498 32.7628 15.5525 31.5845 16.158 30.5573C16.7635 29.5303 17.5877 28.7305 18.6305 28.1581C19.6733 27.5687 20.8675 27.2742 22.213 27.2742C23.5417 27.2742 24.7275 27.5687 25.7703 28.1581C26.8299 28.7305 27.654 29.5303 28.2427 30.5573C28.8482 31.5674 29.151 32.746 29.151 34.093C29.151 35.4231 28.8482 36.6017 28.2427 37.6287C27.654 38.6558 26.8299 39.4638 25.7703 40.0533C24.7275 40.6425 23.5417 40.9371 22.213 40.9371ZM22.213 38.8156C23.0708 38.8156 23.8361 38.622 24.5088 38.2349C25.1984 37.8478 25.7367 37.3005 26.1235 36.5934C26.5104 35.8692 26.7038 35.036 26.7038 34.093C26.7038 33.1334 26.5104 32.3084 26.1235 31.618C25.7367 30.9109 25.1984 30.3637 24.5088 29.9764C23.8361 29.5892 23.0708 29.3956 22.213 29.3956C21.3552 29.3956 20.5899 29.5892 19.9172 29.9764C19.2443 30.3637 18.7062 30.9109 18.3025 31.618C17.8989 32.3084 17.697 33.1334 17.697 34.093C17.697 35.036 17.8989 35.8692 18.3025 36.5934C18.7062 37.3005 19.2443 37.8478 19.9172 38.2349C20.5899 38.622 21.3552 38.8156 22.213 38.8156ZM34.1657 40.0533C35.242 40.6425 36.4613 40.9371 37.8239 40.9371C39.0348 40.9371 40.1111 40.6931 41.0532 40.2048C42.0117 39.6997 42.7519 38.9842 43.2732 38.058L41.4315 36.8963C40.9943 37.5529 40.456 38.0412 39.8169 38.3612C39.1945 38.6642 38.5219 38.8156 37.7985 38.8156C36.924 38.8156 36.1419 38.622 35.4523 38.2349C34.7626 37.8478 34.2162 37.3005 33.8125 36.5934C33.4087 35.8862 33.2069 35.0528 33.2069 34.093C33.2069 33.1334 33.4087 32.3084 33.8125 31.618C34.2162 30.9109 34.7626 30.3637 35.4523 29.9764C36.1419 29.5892 36.924 29.3956 37.7985 29.3956C38.5219 29.3956 39.1945 29.5555 39.8169 29.8754C40.456 30.1785 40.9943 30.6583 41.4315 31.3151L43.2732 30.128C42.7519 29.1851 42.0117 28.478 41.0532 28.0066C40.1111 27.5183 39.0348 27.2742 37.8239 27.2742C36.4613 27.2742 35.242 27.5687 34.1657 28.1581C33.1061 28.7305 32.2735 29.5303 31.6679 30.5573C31.0625 31.5845 30.7597 32.7628 30.7597 34.093C30.7597 35.4231 31.0625 36.6017 31.6679 37.6287C32.2735 38.6558 33.1061 39.4638 34.1657 40.0533ZM60.5741 39.0299V40.7856H62.8701V32.7038C62.8701 30.8688 62.3739 29.505 61.3813 28.6127C60.389 27.7203 58.9762 27.2742 57.1429 27.2742C56.0833 27.2742 55.0659 27.4256 54.0903 27.7287C53.1314 28.015 52.3072 28.4359 51.6179 28.9915L52.627 30.8098C53.1482 30.3721 53.7873 30.027 54.5443 29.7744C55.3012 29.505 56.0749 29.3703 56.8653 29.3703C58.0596 29.3703 58.951 29.6565 59.5396 30.229C60.1452 30.7846 60.4479 31.5758 60.4479 32.6029V33.0828H56.6132C55.2844 33.0828 54.2249 33.2595 53.4341 33.6131C52.6604 33.9666 52.097 34.4382 51.7438 35.0273C51.4077 35.6168 51.2393 36.2733 51.2393 36.9972C51.2393 37.755 51.4411 38.437 51.8449 39.0429C52.2486 39.6323 52.8205 40.0952 53.5604 40.432C54.3173 40.7688 55.1917 40.9371 56.1844 40.9371C57.4121 40.9371 58.4295 40.7099 59.2369 40.2554C59.8023 39.9251 60.2479 39.5166 60.5741 39.0299ZM45.732 40.7856V27.4004H48.1538V40.7856H45.732ZM60.4479 36.6943V34.8256H56.714C55.5031 34.8256 54.6873 35.0273 54.2667 35.4315C53.8463 35.8356 53.636 36.3239 53.636 36.8963C53.636 37.5529 53.8968 38.0834 54.4181 38.4876C54.9396 38.8746 55.6628 39.0683 56.5878 39.0683C57.4961 39.0683 58.2865 38.8663 58.9594 38.4621C59.6491 38.058 60.1452 37.4688 60.4479 36.6943Z" fill="white"/>
    <path fill-rule="evenodd" clip-rule="evenodd" d="M118.126 40.0788C119.152 40.6512 120.312 40.9374 121.607 40.9374C122.768 40.9374 123.802 40.6847 124.71 40.1797C125.366 39.8028 125.921 39.2983 126.376 38.667V40.7859H128.697V22.0464H126.274V29.4367C125.824 28.8484 125.287 28.3801 124.66 28.0319C123.752 27.5268 122.734 27.2742 121.607 27.2742C120.312 27.2742 119.152 27.5605 118.126 28.1329C117.116 28.7053 116.318 29.5052 115.729 30.5322C115.14 31.5422 114.846 32.7293 114.846 34.0933C114.846 35.4569 115.14 36.6524 115.729 37.6793C116.318 38.7064 117.116 39.506 118.126 40.0788ZM124.08 38.2348C123.407 38.6223 122.65 38.816 121.809 38.816C120.951 38.816 120.186 38.6223 119.513 38.2348C118.841 37.8478 118.302 37.3006 117.898 36.5934C117.495 35.8695 117.293 35.036 117.293 34.0933C117.293 33.1335 117.495 32.3084 117.898 31.618C118.302 30.9109 118.841 30.3638 119.513 29.9766C120.186 29.5893 120.951 29.3956 121.809 29.3956C122.65 29.3956 123.407 29.5893 124.08 29.9766C124.769 30.3638 125.308 30.9109 125.695 31.618C126.098 32.3084 126.3 33.1335 126.3 34.0933C126.3 35.036 126.098 35.8695 125.695 36.5934C125.308 37.3006 124.769 37.8478 124.08 38.2348Z" fill="white"/>
    <path fill-rule="evenodd" clip-rule="evenodd" d="M92.8889 40.937C91.4594 40.937 90.1976 40.6424 89.1043 40.0529C88.028 39.4638 87.1871 38.6555 86.5816 37.6286C85.993 36.6014 85.6987 35.4228 85.6987 34.0929C85.6987 32.7628 85.9841 31.5842 86.5566 30.5571C87.1451 29.53 87.9441 28.7303 88.9536 28.1578C89.9791 27.5685 91.1312 27.2739 92.41 27.2739C93.7048 27.2739 94.848 27.5601 95.8405 28.1326C96.833 28.7051 97.607 29.5132 98.1617 30.5571C98.7334 31.5842 99.0196 32.7879 99.0196 34.1687C99.0196 34.2696 99.0115 34.3875 98.9946 34.5222C98.9946 34.657 98.9857 34.783 98.9688 34.901H88.1118C88.1892 35.524 88.3779 36.0963 88.6754 36.6182C89.0963 37.3086 89.6768 37.8474 90.4161 38.2346C91.1562 38.622 92.006 38.8157 92.9647 38.8157C93.7548 38.8157 94.4699 38.6809 95.1093 38.4115C95.7648 38.142 96.3372 37.7379 96.8242 37.1993L98.1617 38.7651C97.5562 39.4722 96.7992 40.011 95.8913 40.3814C94.9996 40.7517 93.9991 40.937 92.8889 40.937ZM94.6554 29.9004C95.3108 30.2708 95.8236 30.7927 96.1937 31.4662C96.4743 31.9771 96.6444 32.5411 96.7016 33.1582H88.107C88.1779 32.547 88.3505 31.9914 88.6254 31.4916C88.9955 30.8012 89.5083 30.2708 90.1645 29.9004C90.82 29.5132 91.569 29.3196 92.41 29.3196C93.267 29.3196 94.016 29.5132 94.6554 29.9004Z" fill="white"/>
    <path fill-rule="evenodd" clip-rule="evenodd" d="M109.809 40.7855V39.0295C109.482 39.5165 109.037 39.9251 108.471 40.255C107.664 40.7095 106.647 40.937 105.419 40.937C104.426 40.937 103.552 40.7685 102.795 40.432C102.055 40.0951 101.484 39.632 101.08 39.0429C100.676 38.4366 100.474 37.7549 100.474 36.9972C100.474 36.273 100.643 35.6165 100.979 35.0273C101.332 34.4378 101.896 33.9666 102.669 33.613C103.46 33.2594 104.519 33.0825 105.848 33.0825H109.682V32.6026C109.682 31.5758 109.38 30.7843 108.774 30.2287C108.186 29.6563 107.294 29.3701 106.1 29.3701C105.309 29.3701 104.536 29.5048 103.779 29.7741C103.023 30.0267 102.383 30.3718 101.862 30.8096L100.852 28.9912C101.542 28.4356 102.366 28.0147 103.325 27.7285C104.301 27.4254 105.318 27.2739 106.377 27.2739C108.211 27.2739 109.624 27.7201 110.616 28.6124C111.608 29.5048 112.105 30.8685 112.105 32.7038V40.7855H109.809ZM103.502 35.4315C103.922 35.0273 104.738 34.8252 105.949 34.8252H109.682V36.6939C109.38 37.4684 108.884 38.0579 108.194 38.4621C107.522 38.8659 106.731 39.068 105.823 39.068C104.897 39.068 104.174 38.8743 103.653 38.4872C103.132 38.0831 102.871 37.5528 102.871 36.896C102.871 36.3236 103.082 35.8353 103.502 35.4315Z" fill="white"/>
  </g>
  <defs>
    <clipPath id="clip0_29_734">
      <rect width="129" height="41" fill="white"/>
    </clipPath>
  </defs>
</svg>
