<svg width="222" height="277" viewBox="0 0 222 277" fill="none" xmlns="http://www.w3.org/2000/svg">
<rect y="0.133301" width="221.533" height="276.267" fill="#4523E7"/>
<g filter="url(#filter0_f_29_2387)">
<path d="M55.3758 143.443C45.5863 113.247 61.6232 81.3435 91.1951 72.1843C120.767 63.025 152.676 80.0788 162.465 110.275C172.255 140.471 156.218 172.375 126.646 181.534C97.074 190.693 65.1653 173.64 55.3758 143.443Z" fill="#8938FF"/>
</g>
<rect x="33.8175" y="39.0665" width="51.3156" height="50.1333" stroke="white" stroke-width="1.06667"/>
<path d="M52.6077 65.1924L65.9195 52.3435L60.6412 62.7925L66.7613 64.1153L50.6859 76.073L57.7416 65.5462L52.6077 65.1924Z" stroke="white" stroke-width="1.06667"/>
<rect x="46.9142" y="138.8" width="42.5852" height="41.6" stroke="white" stroke-width="1.06667"/>
<rect opacity="0.2" x="115.665" y="85.4664" width="63.8655" height="62.4" fill="white" stroke="white" stroke-width="1.06667"/>
<path d="M143.646 74.5167C143.932 74.5894 144.222 74.4169 144.295 74.1315L145.479 69.48C145.552 69.1945 145.379 68.9042 145.094 68.8315C144.809 68.7588 144.518 68.9313 144.446 69.2167L143.393 73.3514L139.258 72.2985C138.972 72.2258 138.682 72.3982 138.609 72.6837C138.537 72.9691 138.709 73.2594 138.995 73.3321L143.646 74.5167ZM95.8574 55.8577C101.337 54.8479 110.314 54.5559 119.372 56.9752C128.423 59.3924 137.516 64.5041 143.319 74.2723L144.236 73.7275C138.253 63.6556 128.885 58.4118 119.648 55.9446C110.418 53.4794 101.279 53.7741 95.6641 54.8087L95.8574 55.8577Z" fill="white"/>
<path d="M130.824 159.083C131.109 159.01 131.399 159.183 131.472 159.468L132.657 164.12C132.729 164.405 132.557 164.696 132.271 164.768C131.986 164.841 131.696 164.669 131.623 164.383L130.57 160.248L126.435 161.301C126.15 161.374 125.86 161.201 125.787 160.916C125.714 160.631 125.887 160.34 126.172 160.268L130.824 159.083ZM99.4043 171.378C102.993 172.039 108.882 172.231 114.823 170.644C120.756 169.06 126.703 165.713 130.497 159.328L131.414 159.872C127.44 166.562 121.219 170.04 115.098 171.675C108.985 173.308 102.935 173.113 99.211 172.427L99.4043 171.378Z" fill="white"/>
<path d="M76.131 154.332L68.0385 150L60.4271 154.332C58.907 160.829 61.6936 167.808 68.0385 169.733C75.3332 168.001 77.1442 159.626 76.131 154.332Z" stroke="white" stroke-width="1.06667"/>
<path d="M65.4775 159.6L67.1145 161.2L70.934 157.466" stroke="white" stroke-width="1.06667"/>
<ellipse cx="147.87" cy="116.933" rx="13.6412" ry="13.3333" fill="white"/>
<g clip-path="url(#clip0_29_2387)">
<path d="M143.505 117.489L146.495 120.6L152.235 114.644L151.411 113.8L146.495 118.9L144.318 116.639L143.505 117.489Z" fill="#8938FF"/>
</g>
<defs>
<filter id="filter0_f_29_2387" x="11.4363" y="28.6428" width="194.968" height="196.433" filterUnits="userSpaceOnUse" color-interpolation-filters="sRGB">
<feFlood flood-opacity="0" result="BackgroundImageFix"/>
<feBlend mode="normal" in="SourceGraphic" in2="BackgroundImageFix" result="shape"/>
<feGaussianBlur stdDeviation="20.5333" result="effect1_foregroundBlur_29_2387"/>
</filter>
<clipPath id="clip0_29_2387">
<rect width="8.73038" height="9.06667" fill="white" transform="translate(143.506 112.667)"/>
</clipPath>
</defs>
</svg>
