<svg width="406" height="518" viewBox="0 0 406 518" fill="none" xmlns="http://www.w3.org/2000/svg">
<rect width="406" height="518" fill="#4523E7"/>
<g filter="url(#filter0_f_29_583)">
<path d="M121.485 279.706C103.544 223.089 132.934 163.269 187.13 146.095C241.326 128.922 299.805 160.898 317.746 217.515C335.687 274.133 306.296 333.953 252.1 351.126C197.905 368.3 139.426 336.324 121.485 279.706Z" fill="#8938FF"/>
</g>
<rect x="64" y="77" width="173" height="176" stroke="white" stroke-width="2"/>
<rect x="64" y="77" width="173" height="176" stroke="white" stroke-width="2"/>
<rect x="230" y="287" width="119" height="72" stroke="white" stroke-width="2"/>
<rect x="230" y="287" width="119" height="72" stroke="white" stroke-width="2"/>
<path d="M135 111.693C136.917 111.312 141.057 109.788 142.283 106.741C143.817 102.932 135.383 110.55 141.133 111.693C146.883 112.836 156.467 107.122 153.783 104.456C151.1 101.789 146.5 111.693 154.55 111.693C162.6 111.693 167.2 109.027 166.817 107.503C166.433 105.979 158.383 113.597 167.967 113.978C175.633 114.283 181.383 111.312 183.3 109.788C182.789 110.296 182.763 111.388 186.75 111.693C190.737 111.998 193.522 110.296 194.417 109.407C194.417 110.423 195.03 112.379 197.483 112.074C199.937 111.769 202.85 110.169 204 109.407" stroke="white" stroke-width="2"/>
<path d="M135 160.693C136.917 160.312 141.057 158.788 142.283 155.741C143.817 151.932 135.383 159.55 141.133 160.693C146.883 161.836 156.467 156.122 153.783 153.456C151.1 150.789 146.5 160.693 154.55 160.693C162.6 160.693 167.2 158.027 166.817 156.503C166.433 154.979 158.383 162.597 167.967 162.978C175.633 163.283 181.383 160.312 183.3 158.788C182.789 159.296 182.763 160.388 186.75 160.693C190.737 160.998 193.522 159.296 194.417 158.407C194.417 159.423 195.03 161.379 197.483 161.074C199.937 160.769 202.85 159.169 204 158.407" stroke="white" stroke-width="2"/>
<path d="M135 209.693C136.917 209.312 141.057 207.788 142.283 204.741C143.817 200.932 135.383 208.55 141.133 209.693C146.883 210.836 156.467 205.122 153.783 202.456C151.1 199.789 146.5 209.693 154.55 209.693C162.6 209.693 167.2 207.027 166.817 205.503C166.433 203.979 158.383 211.597 167.967 211.978C175.633 212.283 181.383 209.312 183.3 207.788C182.789 208.296 182.763 209.388 186.75 209.693C190.737 209.998 193.522 208.296 194.417 207.407C194.417 208.423 195.03 210.379 197.483 210.074C199.937 209.769 202.85 208.169 204 207.407" stroke="white" stroke-width="2"/>
<circle cx="288" cy="292" r="25" fill="white"/>
<g clip-path="url(#clip0_29_583)">
<path d="M280 293.042L285.479 298.875L296 287.708L294.49 286.125L285.479 295.687L281.49 291.449L280 293.042Z" fill="#8938FF"/>
</g>
<rect x="83" y="101" width="34" height="34" stroke="white" stroke-width="2"/>
<rect x="83" y="150" width="34" height="34" stroke="white" stroke-width="2"/>
<rect x="83" y="199" width="34" height="34" stroke="white" stroke-width="2"/>
<line x1="135" y1="124" x2="185" y2="124" stroke="white" stroke-width="2"/>
<line x1="135" y1="176" x2="185" y2="176" stroke="white" stroke-width="2"/>
<line x1="250" y1="330" x2="326" y2="330" stroke="white" stroke-width="2"/>
<line x1="263" y1="341" x2="313" y2="341" stroke="white" stroke-width="2"/>
<line x1="135" y1="225" x2="185" y2="225" stroke="white" stroke-width="2"/>
<defs>
<filter id="filter0_f_29_583" x="39.2197" y="64.4546" width="360.791" height="368.312" filterUnits="userSpaceOnUse" color-interpolation-filters="sRGB">
<feFlood flood-opacity="0" result="BackgroundImageFix"/>
<feBlend mode="normal" in="SourceGraphic" in2="BackgroundImageFix" result="shape"/>
<feGaussianBlur stdDeviation="38.5" result="effect1_foregroundBlur_29_583"/>
</filter>
<clipPath id="clip0_29_583">
<rect width="16" height="17" fill="white" transform="translate(280 284)"/>
</clipPath>
</defs>
</svg>
